# xmcd
#
# Track frame offsets:
#	150
#	4108
#	21553
#	37083
#	50408
#	74890
#	91205
#	112048
#	115238
#	133380
#	153460
#	172340
#	200983
#	218630
#
# Disc length: 3124 seconds
#
# Revision: 0
# Processed by: cddbd v1.4PL0 Copyright (c) Steve Scherf et al.
# Submitted via: dBpowerAMP V4.0
#
DISCID=e00c320e
DTITLE=Keri Leigh And The Blue Devils - No Beginner
DYEAR=1900
DGENRE=Blues
TTITLE0=All Aboard
TTITLE1=Locomotion Blues
TTITLE2=Tell Mama
TTITLE3=Georgia Crawl
TTITLE4=Don't Tease Me
TTITLE5=I Was Just Thinking
TTITLE6=Green River
TTITLE7=Wild Women Don't Get The Blues
TTITLE8=No Beginner At The Blues 
TTITLE9=Stone Cold In Love
TTITLE10=Lightning Strikes The Ground
TTITLE11=Full Moon Blues 
TTITLE12=The Houserocker
TTITLE13=If You Love Me
EXTD=
EXTT0=
EXTT1=
EXTT2=
EXTT3=
EXTT4=
EXTT5=
EXTT6=
EXTT7=
EXTT8=
EXTT9=
EXTT10=
EXTT11=
EXTT12=
EXTT13=
PLAYORDER=
